<svg version="1.1" id="Layer_1" xmlns="http://www.w3.org/2000/svg" xmlns:xlink="http://www.w3.org/1999/xlink" x="0px" y="0px"
	 width="100%" viewBox="0 0 5914 1571" enable-background="new 0 0 5914 1571" xml:space="preserve">
<path fill="none" opacity="1.000000" stroke="none"
	d="
M5916.000000,1404.000000 
	C5916.000000,1460.663574 5916.000000,1517.327271 5916.000000,1573.993164 
	C3944.775391,1573.995361 1973.550903,1573.995361 2.163186,1573.995361 
	C2.163186,1050.136963 2.163186,526.273804 2.163186,2.205350 
	C1973.090698,2.205350 3944.181396,2.205350 5916.000000,2.205350 
	C5916.000000,377.402832 5916.000000,752.806152 5915.416504,1129.703979 
	C5909.264160,1123.353638 5901.661621,1121.592529 5892.288574,1121.885010 
	C5871.644043,1122.529541 5850.965332,1122.084961 5830.300781,1122.085327 
	C5817.968750,1122.085571 5805.633301,1121.928345 5793.305176,1122.142578 
	C5784.988281,1122.287109 5780.419434,1126.773804 5779.719238,1134.937378 
	C5779.492188,1137.585083 5779.660156,1140.267090 5779.660156,1142.933472 
	C5779.658691,1229.258545 5779.670410,1315.583740 5779.650391,1401.908813 
	C5779.645508,1422.384888 5768.738770,1433.279297 5748.333496,1433.281250 
	C5662.674805,1433.289185 5577.016602,1433.283203 5491.357910,1433.290405 
	C5488.359863,1433.290649 5485.339844,1433.160034 5482.368652,1433.465576 
	C5473.263672,1434.401855 5468.730957,1439.268066 5468.350586,1448.394531 
	C5468.211914,1451.721680 5468.326660,1455.059570 5468.326660,1458.392578 
	C5468.326660,1489.722900 5468.277344,1521.053467 5468.354980,1552.383545 
	C5468.380371,1562.496582 5472.755371,1566.847656 5482.858398,1567.275757 
	C5485.187500,1567.374390 5487.524414,1567.285645 5489.857422,1567.292480 
	C5574.158691,1567.542358 5658.459473,1567.818970 5742.760742,1567.955200 
	C5746.339355,1567.961060 5750.073730,1567.102783 5753.472656,1565.902710 
	C5769.804199,1560.136230 5779.621094,1546.028931 5779.661621,1528.563477 
	C5779.709961,1507.898926 5779.566895,1487.233276 5779.702637,1466.569580 
	C5779.845215,1444.857422 5790.702637,1434.111694 5812.206543,1434.098389 
	C5833.204590,1434.085449 5854.202637,1434.122681 5875.200684,1434.084961 
	C5887.247559,1434.063232 5897.403809,1429.509277 5904.828613,1420.091064 
	C5908.036621,1416.021606 5909.806152,1410.821289 5912.255371,1406.148560 
	C5913.033691,1404.663940 5913.088379,1401.809448 5916.000000,1404.000000 
M440.999603,1275.287964 
	C535.320679,1275.287964 629.641907,1275.404907 723.962646,1275.233643 
	C764.911377,1275.159302 805.860474,1274.599365 846.806763,1274.061157 
	C882.759644,1273.588623 918.328186,1269.226562 953.474304,1261.866211 
	C990.079407,1254.200317 1025.195312,1242.381836 1057.378784,1222.725342 
	C1100.548096,1196.359009 1129.765259,1159.074707 1146.026367,1111.315063 
	C1157.051514,1078.933472 1160.538940,1045.366943 1161.494263,1011.518738 
	C1162.064697,991.309448 1160.068726,971.128296 1155.995972,951.240112 
	C1147.713989,910.797974 1129.943848,875.357910 1100.174927,846.402771 
	C1074.923340,821.841492 1044.801636,805.276489 1011.729858,793.855835 
	C1004.162048,791.242432 997.003418,788.490356 995.947876,779.372742 
	C994.847717,769.869263 1002.184937,766.298767 1008.885559,762.525940 
	C1033.674072,748.568604 1056.173096,731.798462 1074.997314,710.228149 
	C1105.933228,674.779419 1121.180908,633.157898 1123.483276,586.664001 
	C1124.220337,571.780396 1123.371094,556.739563 1122.180542,541.856079 
	C1119.934082,513.773865 1112.461304,486.887482 1099.715332,461.803070 
	C1078.472290,419.996246 1045.220947,390.253937 1003.500610,369.796570 
	C953.362854,345.211761 899.464966,334.857452 844.375549,334.480957 
	C682.737000,333.376251 521.085571,334.250702 359.440552,333.835297 
	C343.254303,333.793701 328.165436,346.393311 328.207581,365.094849 
	C328.456818,475.746887 328.308350,586.399780 328.351562,697.052368 
	C328.359070,716.252869 340.277344,728.043884 359.476715,728.082703 
	C381.807129,728.127869 404.138519,727.969910 426.467957,728.125305 
	C453.088501,728.310486 470.209808,745.505127 470.322357,771.920898 
	C470.370636,783.252563 470.382385,794.584961 470.312714,805.916443 
	C470.263367,813.946960 469.478607,821.902344 465.488647,829.078796 
	C457.109222,844.150269 443.834564,851.091553 426.949951,851.237976 
	C403.954590,851.437378 380.955383,851.167847 357.959412,851.326965 
	C340.362030,851.448730 328.366333,863.349182 328.358734,880.722168 
	C328.305420,1002.373352 328.315186,1124.024536 328.405792,1245.675781 
	C328.408478,1249.248901 328.906189,1253.072998 330.235229,1256.349365 
	C335.421692,1269.135620 345.377197,1275.222778 359.009796,1275.264160 
	C385.672821,1275.344971 412.336304,1275.287964 440.999603,1275.287964 
M2830.837646,567.006714 
	C2849.289307,558.625305 2871.396484,564.493164 2883.763428,583.741089 
	C2897.239258,604.714417 2912.143311,624.771851 2926.483887,645.187073 
	C2981.110107,722.952698 3035.796387,800.676147 3090.389648,878.464966 
	C3132.591797,938.598328 3174.679688,998.811584 3216.834961,1058.977905 
	C3252.119141,1109.337769 3287.410645,1159.692261 3322.732666,1210.025635 
	C3334.752441,1227.153564 3346.878906,1244.206421 3358.947998,1261.299561 
	C3364.823486,1269.620483 3372.445312,1275.214722 3382.952881,1275.238037 
	C3432.951416,1275.348633 3482.950195,1275.321899 3532.948975,1275.252563 
	C3540.970459,1275.241455 3547.775879,1271.964111 3553.346924,1266.241333 
	C3560.027832,1259.378784 3561.759766,1250.991211 3561.756348,1241.614746 
	C3561.650635,966.288818 3561.670654,690.962830 3561.670654,415.636902 
	C3561.670654,398.637360 3561.400146,381.632355 3561.743652,364.639740 
	C3562.116699,346.167786 3546.664062,333.632996 3530.896729,333.946686 
	C3504.907715,334.463745 3478.900635,334.035736 3452.901611,334.106659 
	C3437.893066,334.147614 3426.259766,342.917938 3423.885010,357.549011 
	C3422.252686,367.607117 3422.389404,378.014313 3422.385742,388.265717 
	C3422.310303,595.593445 3422.341309,802.921265 3422.254395,1010.248962 
	C3422.252197,1015.145630 3421.894775,1020.284607 3420.409668,1024.893921 
	C3415.453125,1040.277466 3404.168213,1049.202271 3388.630615,1051.722778 
	C3372.242676,1054.381104 3358.494873,1049.010376 3348.710693,1034.926514 
	C3330.316650,1008.450684 3311.818115,982.047546 3293.403564,955.585815 
	C3259.043457,906.209900 3224.706787,856.817627 3190.370605,807.425049 
	C3159.634033,763.210999 3128.902344,718.993347 3098.184814,674.766113 
	C3067.660156,630.816650 3037.184814,586.832825 3006.633301,542.901917 
	C2976.270996,499.242676 2945.836670,455.633301 2915.441895,411.996429 
	C2900.626465,390.726349 2885.823486,369.447510 2871.025635,348.164978 
	C2864.744385,339.130951 2856.566406,333.988495 2845.127197,334.023132 
	C2795.795654,334.172485 2746.463623,334.044464 2697.131592,334.115601 
	C2684.043945,334.134491 2673.486572,341.052460 2669.409424,352.902985 
	C2667.838379,357.469635 2667.727539,362.696381 2667.726074,367.622589 
	C2667.651123,619.949158 2667.660156,872.275696 2667.660156,1124.602295 
	C2667.660156,1164.934570 2667.598877,1205.266846 2667.688232,1245.598877 
	C2667.726807,1262.958496 2679.646484,1275.089722 2697.092041,1275.230835 
	C2724.089600,1275.449341 2751.090088,1275.297241 2778.089355,1275.283569 
	C2786.138916,1275.279541 2792.919678,1272.327515 2798.599854,1266.593628 
	C2805.633545,1259.493530 2807.741943,1250.883911 2807.738037,1241.129883 
	C2807.649170,1029.802246 2807.737061,818.474487 2807.549561,607.147034 
	C2807.533936,589.478149 2813.954590,576.322571 2830.837646,567.006714 
M3843.898193,1209.072388 
	C3869.920410,1226.843994 3898.366455,1239.671387 3928.238281,1249.209351 
	C3983.062744,1266.714722 4039.733398,1273.192627 4096.931152,1275.070679 
	C4123.510742,1275.943481 4150.196777,1275.133057 4176.779297,1273.890747 
	C4197.947266,1272.901489 4219.121582,1270.775513 4240.135254,1267.974243 
	C4302.782715,1259.624023 4360.330566,1237.647461 4412.350098,1201.593750 
	C4451.181641,1174.680298 4481.669922,1140.745850 4499.869141,1096.604980 
	C4521.076172,1045.167969 4523.904785,991.845093 4512.984375,938.100708 
	C4501.871094,883.407410 4470.653320,842.334900 4421.901855,814.670776 
	C4380.725098,791.304932 4336.145996,777.220215 4290.500977,766.172241 
	C4266.314453,760.317993 4241.760254,755.997314 4217.487793,750.474548 
	C4153.695312,735.959473 4089.982178,721.096741 4026.205078,706.513672 
	C3998.928467,700.276733 3972.125732,692.718079 3947.070557,679.939941 
	C3922.530029,667.424133 3905.093018,648.932007 3898.249268,621.574585 
	C3894.593262,606.958618 3894.517334,592.133118 3895.699951,577.266113 
	C3897.957275,548.889160 3907.628662,523.720276 3927.966553,503.150574 
	C3946.517822,484.387909 3969.559570,473.634369 3994.305908,466.223175 
	C4032.164062,454.885162 4071.231934,451.978821 4110.459961,451.450439 
	C4130.045898,451.186584 4149.691895,452.076263 4169.243652,453.421356 
	C4198.827637,455.456604 4227.869629,460.557892 4255.489258,472.001068 
	C4273.829102,479.599670 4290.387695,490.046844 4304.061035,504.420746 
	C4319.604980,520.760742 4330.750977,539.988403 4337.714844,561.455688 
	C4341.399414,572.812988 4344.264160,584.434509 4347.603516,595.906250 
	C4351.878418,610.591187 4361.690918,618.067383 4376.661133,618.085083 
	C4401.993652,618.114990 4427.325684,618.129883 4452.658203,618.080811 
	C4470.778320,618.045715 4482.501465,606.301880 4482.288086,588.005493 
	C4482.045898,567.216919 4476.348633,547.419006 4470.256836,527.789185 
	C4460.071289,494.970062 4443.905762,465.261292 4420.633301,439.992950 
	C4384.321777,400.567841 4339.827637,373.408752 4289.316895,356.027740 
	C4243.605957,340.298309 4196.070801,335.649384 4148.159180,334.242096 
	C4129.568359,333.695984 4110.905762,334.476959 4092.312988,335.399963 
	C4072.773438,336.369965 4053.213135,337.650970 4033.776123,339.820618 
	C3983.468262,345.436249 3935.508057,359.048828 3890.904541,383.506256 
	C3860.147949,400.370972 3831.261719,419.678253 3807.870605,446.288300 
	C3789.465576,467.226440 3775.146973,490.544342 3766.035400,516.989929 
	C3750.657715,561.622498 3748.597656,607.255371 3756.318115,653.445740 
	C3762.587891,690.956665 3779.477539,723.356445 3806.806641,749.782715 
	C3841.266846,783.104919 3883.342041,803.341431 3928.407471,817.873474 
	C3960.053223,828.078064 3992.569336,834.669250 4025.195312,840.978943 
	C4066.901367,849.044678 4108.364746,858.358215 4149.957520,867.016113 
	C4184.103516,874.123840 4218.369629,880.679871 4252.423828,888.196594 
	C4277.738770,893.784180 4302.497070,901.385620 4325.176758,914.451172 
	C4348.858887,928.094482 4366.238281,947.075256 4373.510254,973.922119 
	C4378.783691,993.390747 4378.755859,1013.248413 4375.658691,1033.104370 
	C4371.510254,1059.703125 4361.340332,1083.323853 4341.769043,1102.470581 
	C4321.696289,1122.107300 4297.140625,1133.444336 4270.755859,1141.390747 
	C4230.296387,1153.576416 4188.500000,1156.218506 4146.667969,1157.012817 
	C4122.808105,1157.466064 4098.860840,1155.656494 4075.016357,1153.967773 
	C4041.073730,1151.564087 4007.877441,1145.149414 3976.245605,1132.128052 
	C3943.797363,1118.770752 3916.818115,1098.524780 3897.770996,1068.589722 
	C3879.777100,1040.309082 3870.929688,1008.886230 3866.302979,976.049927 
	C3863.946533,959.326050 3852.869873,949.404419 3835.816162,949.323914 
	C3807.817871,949.191650 3779.808838,949.727356 3751.823486,949.108459 
	C3737.169189,948.784302 3721.191162,963.250732 3722.410889,979.143799 
	C3723.169434,989.026978 3724.383057,998.903564 3725.968018,1008.689819 
	C3732.108643,1046.605469 3742.613037,1083.113403 3760.932129,1117.156982 
	C3780.848389,1154.168701 3807.750488,1184.788574 3843.898193,1209.072388 
M5559.722168,1273.334351 
	C5578.090820,1263.298584 5583.064941,1248.598633 5574.394531,1230.031128 
	C5567.088867,1214.386841 5559.789551,1198.739258 5552.512695,1183.081787 
	C5535.304199,1146.053345 5518.136719,1109.005493 5500.901855,1071.989380 
	C5485.895508,1039.758911 5470.794922,1007.572388 5455.779785,975.346252 
	C5438.395508,938.036621 5421.081543,900.694458 5403.694824,863.385986 
	C5389.101074,832.070801 5374.418457,800.796997 5359.826172,769.481018 
	C5342.432617,732.155029 5325.118652,694.792053 5307.724609,657.466492 
	C5293.138672,626.166992 5278.455078,594.913025 5263.870605,563.613098 
	C5246.470215,526.270630 5229.160156,488.886169 5211.752441,451.547089 
	C5196.605469,419.056763 5181.115234,386.723114 5166.309570,354.078247 
	C5160.249512,340.715637 5150.780273,333.996490 5136.201172,334.067474 
	C5118.206055,334.155060 5100.196777,334.515808 5082.218262,333.958923 
	C5066.629883,333.476105 5056.714355,340.300903 5049.921875,354.061981 
	C5016.085449,422.616302 4981.957520,491.027100 4947.859863,559.452698 
	C4887.633789,680.312073 4827.344238,801.140015 4767.102051,921.991699 
	C4715.936035,1024.636108 4664.991699,1127.391846 4613.510742,1229.877930 
	C4600.967773,1254.848755 4620.989746,1276.629639 4641.897949,1275.602905 
	C4668.493652,1274.296509 4695.203125,1275.220825 4721.863281,1275.314453 
	C4735.153809,1275.361084 4744.650879,1269.712158 4750.706543,1257.759277 
	C4764.375488,1230.777100 4778.353516,1203.951416 4792.060059,1176.988037 
	C4816.316406,1129.271240 4840.461426,1081.498047 4864.664551,1033.754395 
	C4865.565918,1031.977417 4866.558105,1030.244507 4867.559082,1028.520508 
	C4874.162598,1017.138367 4883.961914,1012.003296 4897.202637,1012.015747 
	C5030.837402,1012.141602 5164.471680,1012.121460 5298.106445,1012.049500 
	C5312.220703,1012.041931 5322.165039,1017.952332 5328.277832,1030.772095 
	C5336.005371,1046.976685 5344.121582,1062.995850 5351.971191,1079.142700 
	C5380.745117,1138.333252 5409.500488,1197.532959 5438.208496,1256.755249 
	C5444.360840,1269.446411 5454.309570,1275.442749 5468.419434,1275.340332 
	C5494.411621,1275.151733 5520.407227,1275.348389 5546.399902,1275.220459 
	C5550.335938,1275.201172 5554.267090,1274.299927 5559.722168,1273.334351 
M1216.627808,1211.787354 
	C1214.124146,1216.858643 1211.627075,1221.933228 1209.112915,1226.999390 
	C1208.225708,1228.787109 1207.186157,1230.506958 1206.404175,1232.338013 
	C1197.432983,1253.343140 1211.028931,1274.931274 1233.805298,1275.209839 
	C1260.467651,1275.535889 1287.144775,1274.897583 1313.800415,1275.434570 
	C1329.375122,1275.748291 1339.612183,1269.092285 1346.338013,1255.465454 
	C1353.987427,1239.967407 1362.113525,1224.705322 1369.933594,1209.290527 
	C1394.158569,1161.539429 1418.324341,1113.758423 1442.541748,1066.003540 
	C1448.405029,1054.441895 1454.469360,1042.981567 1460.277588,1031.392578 
	C1466.691772,1018.594421 1476.608887,1012.017700 1491.237915,1012.029358 
	C1625.236328,1012.136108 1759.234741,1012.108887 1893.233154,1012.066406 
	C1906.563354,1012.062195 1916.080200,1017.812866 1921.877930,1029.826782 
	C1928.667480,1043.895874 1935.501709,1057.943359 1942.362793,1071.977783 
	C1972.448242,1133.518311 2002.609619,1195.021973 2032.598389,1256.609619 
	C2038.812744,1269.371948 2048.614014,1275.431885 2062.757568,1275.336426 
	C2088.756348,1275.161011 2114.771973,1274.731445 2140.751709,1275.454712 
	C2163.222168,1276.080322 2180.306152,1255.389648 2169.469238,1231.371704 
	C2151.162842,1190.799072 2131.943115,1150.638550 2113.089355,1110.313110 
	C2098.172607,1078.408569 2083.182617,1046.538452 2068.309814,1014.613586 
	C2051.203125,977.894165 2034.229248,941.112793 2017.122925,904.393127 
	C2002.105835,872.158142 1986.949219,839.988159 1971.920166,807.758728 
	C1954.802002,771.049011 1937.757080,734.305115 1920.680176,697.576172 
	C1905.551025,665.036255 1890.444702,632.485657 1875.286621,599.959229 
	C1858.168335,563.226562 1840.983276,526.525024 1823.865601,489.791962 
	C1811.241455,462.701477 1798.736084,435.555542 1786.069946,408.484741 
	C1776.913574,388.915375 1767.595703,369.421448 1758.319458,349.908356 
	C1753.374146,339.505615 1744.628052,334.435822 1733.575806,334.210358 
	C1712.917969,333.789032 1692.243286,333.918610 1671.579834,334.163727 
	C1661.667969,334.281281 1653.491211,338.595184 1648.246094,347.139404 
	C1644.786133,352.775635 1642.156372,358.924164 1639.194336,364.862976 
	C1587.519409,468.471375 1535.841309,572.078186 1484.183105,675.694946 
	C1431.669067,781.028259 1379.197021,886.382385 1326.666138,991.707275 
	C1290.281250,1064.659302 1253.828125,1137.577148 1216.627808,1211.787354 
M2317.665283,836.999878 
	C2317.665283,970.284729 2317.665283,1103.569580 2317.665283,1236.854370 
	C2317.665283,1239.520020 2317.586914,1242.188721 2317.681885,1244.850952 
	C2318.333496,1263.112671 2330.543701,1275.155029 2348.879883,1275.247192 
	C2375.869385,1275.382935 2402.860352,1275.370728 2429.849854,1275.251709 
	C2448.398926,1275.169922 2460.319336,1263.081421 2460.320557,1244.453735 
	C2460.340820,951.227173 2460.242920,658.000488 2460.604004,364.774414 
	C2460.622314,350.029724 2448.796387,333.674042 2430.022949,333.977753 
	C2402.706787,334.419739 2375.377930,334.041687 2348.054688,334.109558 
	C2331.322998,334.151093 2319.085693,345.522400 2317.742676,362.175049 
	C2317.502197,365.155579 2317.667236,368.169922 2317.667236,371.168640 
	C2317.665039,525.778992 2317.665283,680.389404 2317.665283,836.999878 
M88.999817,452.092957 
	C101.660370,452.092285 114.323982,452.263062 126.980492,452.036530 
	C137.049820,451.856293 142.086594,446.534637 142.331818,436.507324 
	C142.380676,434.509460 142.339127,432.509369 142.339142,430.510315 
	C142.339157,349.881348 142.339127,269.252380 142.339188,188.623428 
	C142.339188,181.959869 142.194321,175.292419 142.373138,168.633652 
	C142.661453,157.896683 146.970901,148.881775 156.652710,144.099014 
	C162.044785,141.435349 168.704514,140.270996 174.797928,140.254425 
	C261.756622,140.017807 348.716156,140.102814 435.675507,140.082840 
	C449.501221,140.079666 453.648407,135.989944 453.660065,122.422997 
	C453.688110,89.771622 453.680817,57.120201 453.663788,24.468811 
	C453.656372,10.269396 449.509918,6.100164 435.258240,6.097030 
	C350.297974,6.078343 265.336548,6.320777 180.378296,5.905373 
	C161.778107,5.814427 141.767838,24.013371 142.228104,44.081284 
	C142.694000,64.394424 142.352707,84.726631 142.308945,105.050369 
	C142.301804,108.369514 142.285843,111.730309 141.793869,114.999611 
	C139.512512,130.159836 129.113220,139.177322 113.785698,139.266647 
	C97.460548,139.361801 81.134262,139.246780 64.808784,139.307541 
	C57.826092,139.333527 50.829784,139.335342 43.864632,139.758850 
	C23.238203,141.013031 8.061229,159.882751 8.154302,179.206802 
	C8.563495,264.165100 8.323852,349.126495 8.337886,434.086761 
	C8.340167,447.897034 12.397813,452.042145 26.028440,452.078766 
	C46.352127,452.133392 66.676064,452.092957 88.999817,452.092957 
z"/>
<path fill="#FEFDFD" opacity="1.000000" stroke="none" 
	d="
M5916.000000,1403.062744 
	C5913.088379,1401.809448 5913.033691,1404.663940 5912.255371,1406.148560 
	C5909.806152,1410.821289 5908.036621,1416.021606 5904.828613,1420.091064 
	C5897.403809,1429.509277 5887.247559,1434.063232 5875.200684,1434.084961 
	C5854.202637,1434.122681 5833.204590,1434.085449 5812.206543,1434.098389 
	C5790.702637,1434.111694 5779.845215,1444.857422 5779.702637,1466.569580 
	C5779.566895,1487.233276 5779.709961,1507.898926 5779.661621,1528.563477 
	C5779.621094,1546.028931 5769.804199,1560.136230 5753.472656,1565.902710 
	C5750.073730,1567.102783 5746.339355,1567.961060 5742.760742,1567.955200 
	C5658.459473,1567.818970 5574.158691,1567.542358 5489.857422,1567.292480 
	C5487.524414,1567.285645 5485.187500,1567.374390 5482.858398,1567.275757 
	C5472.755371,1566.847656 5468.380371,1562.496582 5468.354980,1552.383545 
	C5468.277344,1521.053467 5468.326660,1489.722900 5468.326660,1458.392578 
	C5468.326660,1455.059570 5468.211914,1451.721680 5468.350586,1448.394531 
	C5468.730957,1439.268066 5473.263672,1434.401855 5482.368652,1433.465576 
	C5485.339844,1433.160034 5488.359863,1433.290649 5491.357910,1433.290405 
	C5577.016602,1433.283203 5662.674805,1433.289185 5748.333496,1433.281250 
	C5768.738770,1433.279297 5779.645508,1422.384888 5779.650391,1401.908813 
	C5779.670410,1315.583740 5779.658691,1229.258545 5779.660156,1142.933472 
	C5779.660156,1140.267090 5779.492188,1137.585083 5779.719238,1134.937378 
	C5780.419434,1126.773804 5784.988281,1122.287109 5793.305176,1122.142578 
	C5805.633301,1121.928345 5817.968750,1122.085571 5830.300781,1122.085327 
	C5850.965332,1122.084961 5871.644043,1122.529541 5892.288574,1121.885010 
	C5901.661621,1121.592529 5909.264160,1123.353638 5915.416504,1130.599243 
	C5916.000000,1220.708496 5916.000000,1311.416870 5916.000000,1403.062744 
z"/>
<path fill="#FEFEFE" opacity="1.000000" stroke="none" 
	d="
M439.999573,1275.287964 
	C412.336304,1275.287964 385.672821,1275.344971 359.009796,1275.264160 
	C345.377197,1275.222778 335.421692,1269.135620 330.235229,1256.349365 
	C328.906189,1253.072998 328.408478,1249.248901 328.405792,1245.675781 
	C328.315186,1124.024536 328.305420,1002.373352 328.358734,880.722168 
	C328.366333,863.349182 340.362030,851.448730 357.959412,851.326965 
	C380.955383,851.167847 403.954590,851.437378 426.949951,851.237976 
	C443.834564,851.091553 457.109222,844.150269 465.488647,829.078796 
	C469.478607,821.902344 470.263367,813.946960 470.312714,805.916443 
	C470.382385,794.584961 470.370636,783.252563 470.322357,771.920898 
	C470.209808,745.505127 453.088501,728.310486 426.467957,728.125305 
	C404.138519,727.969910 381.807129,728.127869 359.476715,728.082703 
	C340.277344,728.043884 328.359070,716.252869 328.351562,697.052368 
	C328.308350,586.399780 328.456818,475.746887 328.207581,365.094849 
	C328.165436,346.393311 343.254303,333.793701 359.440552,333.835297 
	C521.085571,334.250702 682.737000,333.376251 844.375549,334.480957 
	C899.464966,334.857452 953.362854,345.211761 1003.500610,369.796570 
	C1045.220947,390.253937 1078.472290,419.996246 1099.715332,461.803070 
	C1112.461304,486.887482 1119.934082,513.773865 1122.180542,541.856079 
	C1123.371094,556.739563 1124.220337,571.780396 1123.483276,586.664001 
	C1121.180908,633.157898 1105.933228,674.779419 1074.997314,710.228149 
	C1056.173096,731.798462 1033.674072,748.568604 1008.885559,762.525940 
	C1002.184937,766.298767 994.847717,769.869263 995.947876,779.372742 
	C997.003418,788.490356 1004.162048,791.242432 1011.729858,793.855835 
	C1044.801636,805.276489 1074.923340,821.841492 1100.174927,846.402771 
	C1129.943848,875.357910 1147.713989,910.797974 1155.995972,951.240112 
	C1160.068726,971.128296 1162.064697,991.309448 1161.494263,1011.518738 
	C1160.538940,1045.366943 1157.051514,1078.933472 1146.026367,1111.315063 
	C1129.765259,1159.074707 1100.548096,1196.359009 1057.378784,1222.725342 
	C1025.195312,1242.381836 990.079407,1254.200317 953.474304,1261.866211 
	C918.328186,1269.226562 882.759644,1273.588623 846.806763,1274.061157 
	C805.860474,1274.599365 764.911377,1275.159302 723.962646,1275.233643 
	C629.641907,1275.404907 535.320679,1275.287964 439.999573,1275.287964 
M831.606689,1150.121460 
	C844.457214,1148.744141 857.400879,1147.940552 870.139648,1145.874268 
	C900.112671,1141.013184 929.235962,1133.267700 955.820801,1117.886230 
	C982.996277,1102.162964 999.455994,1078.668335 1006.125671,1048.201538 
	C1010.782043,1026.931519 1010.641418,1005.459045 1008.360291,983.906006 
	C1006.133362,962.864441 1000.382690,942.955322 989.545532,924.711243 
	C973.155579,897.119385 948.105469,880.614258 918.646729,869.806458 
	C883.919983,857.065918 847.604187,852.676453 811.113342,852.374084 
	C711.515015,851.548767 611.905396,852.100769 512.300232,852.075806 
	C500.751251,852.072937 491.091949,856.279907 482.821381,864.269470 
	C472.973724,873.782349 470.393372,885.884705 470.378540,898.775757 
	C470.291290,974.728760 470.318054,1050.681885 470.390289,1126.635010 
	C470.393707,1130.239014 470.924255,1133.899170 471.673431,1137.435059 
	C473.843414,1147.676514 479.831268,1152.684692 490.296814,1153.271729 
	C492.621429,1153.402222 494.959534,1153.292725 497.291412,1153.292725 
	C588.568359,1153.292847 679.845398,1153.344116 771.122253,1153.238281 
	C785.069519,1153.222046 799.020142,1152.581787 812.960815,1152.021606 
	C818.580383,1151.795898 824.177368,1151.008911 831.606689,1150.121460 
M976.295898,631.006409 
	C982.169128,605.031433 982.276550,578.868347 977.133789,552.900940 
	C971.117126,522.520508 955.718445,497.789429 928.324036,482.266663 
	C916.589417,475.617310 903.807983,470.377289 890.938660,466.257050 
	C861.601135,456.864441 830.995789,454.455963 800.483337,454.295197 
	C698.868469,453.759766 597.249084,454.092468 495.631409,454.092499 
	C493.965546,454.092499 492.297821,454.041016 490.634125,454.101288 
	C478.069489,454.556305 471.689423,460.964447 471.683990,473.401428 
	C471.652557,545.033508 471.626556,616.665710 471.699280,688.297668 
	C471.716675,705.427246 480.333862,717.520203 495.671143,723.996521 
	C502.460449,726.863403 510.477051,727.891785 517.943665,727.920776 
	C589.907837,728.199951 661.873596,728.038940 733.838806,728.109863 
	C767.411987,728.142944 800.963806,727.657593 834.373962,724.033569 
	C857.527710,721.522095 880.422424,717.461426 902.456238,709.674927 
	C924.441223,701.905762 943.938904,690.458130 958.078674,671.157776 
	C966.647705,659.461243 972.287415,646.542542 976.295898,631.006409 
z"/>
<path fill="#FEFEFE" opacity="1.000000" stroke="none" 
	d="
M2830.158447,567.387390 
	C2813.954590,576.322571 2807.533936,589.478149 2807.549561,607.147034 
	C2807.737061,818.474487 2807.649170,1029.802246 2807.738037,1241.129883 
	C2807.741943,1250.883911 2805.633545,1259.493530 2798.599854,1266.593628 
	C2792.919678,1272.327515 2786.138916,1275.279541 2778.089355,1275.283569 
	C2751.090088,1275.297241 2724.089600,1275.449341 2697.092041,1275.230835 
	C2679.646484,1275.089722 2667.726807,1262.958496 2667.688232,1245.598877 
	C2667.598877,1205.266846 2667.660156,1164.934570 2667.660156,1124.602295 
	C2667.660156,872.275696 2667.651123,619.949158 2667.726074,367.622589 
	C2667.727539,362.696381 2667.838379,357.469635 2669.409424,352.902985 
	C2673.486572,341.052460 2684.043945,334.134491 2697.131592,334.115601 
	C2746.463623,334.044464 2795.795654,334.172485 2845.127197,334.023132 
	C2856.566406,333.988495 2864.744385,339.130951 2871.025635,348.164978 
	C2885.823486,369.447510 2900.626465,390.726349 2915.441895,411.996429 
	C2945.836670,455.633301 2976.270996,499.242676 3006.633301,542.901917 
	C3037.184814,586.832825 3067.660156,630.816650 3098.184814,674.766113 
	C3128.902344,718.993347 3159.634033,763.210999 3190.370605,807.425049 
	C3224.706787,856.817627 3259.043457,906.209900 3293.403564,955.585815 
	C3311.818115,982.047546 3330.316650,1008.450684 3348.710693,1034.926514 
	C3358.494873,1049.010376 3372.242676,1054.381104 3388.630615,1051.722778 
	C3404.168213,1049.202271 3415.453125,1040.277466 3420.409668,1024.893921 
	C3421.894775,1020.284607 3422.252197,1015.145630 3422.254395,1010.248962 
	C3422.341309,802.921265 3422.310303,595.593445 3422.385742,388.265717 
	C3422.389404,378.014313 3422.252686,367.607117 3423.885010,357.549011 
	C3426.259766,342.917938 3437.893066,334.147614 3452.901611,334.106659 
	C3478.900635,334.035736 3504.907715,334.463745 3530.896729,333.946686 
	C3546.664062,333.632996 3562.116699,346.167786 3561.743652,364.639740 
	C3561.400146,381.632355 3561.670654,398.637360 3561.670654,415.636902 
	C3561.670654,690.962830 3561.650635,966.288818 3561.756348,1241.614746 
	C3561.759766,1250.991211 3560.027832,1259.378784 3553.346924,1266.241333 
	C3547.775879,1271.964111 3540.970459,1275.241455 3532.948975,1275.252563 
	C3482.950195,1275.321899 3432.951416,1275.348633 3382.952881,1275.238037 
	C3372.445312,1275.214722 3364.823486,1269.620483 3358.947998,1261.299561 
	C3346.878906,1244.206421 3334.752441,1227.153564 3322.732666,1210.025635 
	C3287.410645,1159.692261 3252.119141,1109.337769 3216.834961,1058.977905 
	C3174.679688,998.811584 3132.591797,938.598328 3090.389648,878.464966 
	C3035.796387,800.676147 2981.110107,722.952698 2926.483887,645.187073 
	C2912.143311,624.771851 2897.239258,604.714417 2883.763428,583.741089 
	C2871.396484,564.493164 2849.289307,558.625305 2830.158447,567.387390 
z"/>
<path fill="#FEFEFE" opacity="1.000000" stroke="none" 
	d="
M3843.319824,1208.634766 
	C3807.750488,1184.788574 3780.848389,1154.168701 3760.932129,1117.156982 
	C3742.613037,1083.113403 3732.108643,1046.605469 3725.968018,1008.689819 
	C3724.383057,998.903564 3723.169434,989.026978 3722.410889,979.143799 
	C3721.191162,963.250732 3737.169189,948.784302 3751.823486,949.108459 
	C3779.808838,949.727356 3807.817871,949.191650 3835.816162,949.323914 
	C3852.869873,949.404419 3863.946533,959.326050 3866.302979,976.049927 
	C3870.929688,1008.886230 3879.777100,1040.309082 3897.770996,1068.589722 
	C3916.818115,1098.524780 3943.797363,1118.770752 3976.245605,1132.128052 
	C4007.877441,1145.149414 4041.073730,1151.564087 4075.016357,1153.967773 
	C4098.860840,1155.656494 4122.808105,1157.466064 4146.667969,1157.012817 
	C4188.500000,1156.218506 4230.296387,1153.576416 4270.755859,1141.390747 
	C4297.140625,1133.444336 4321.696289,1122.107300 4341.769043,1102.470581 
	C4361.340332,1083.323853 4371.510254,1059.703125 4375.658691,1033.104370 
	C4378.755859,1013.248413 4378.783691,993.390747 4373.510254,973.922119 
	C4366.238281,947.075256 4348.858887,928.094482 4325.176758,914.451172 
	C4302.497070,901.385620 4277.738770,893.784180 4252.423828,888.196594 
	C4218.369629,880.679871 4184.103516,874.123840 4149.957520,867.016113 
	C4108.364746,858.358215 4066.901367,849.044678 4025.195312,840.978943 
	C3992.569336,834.669250 3960.053223,828.078064 3928.407471,817.873474 
	C3883.342041,803.341431 3841.266846,783.104919 3806.806641,749.782715 
	C3779.477539,723.356445 3762.587891,690.956665 3756.318115,653.445740 
	C3748.597656,607.255371 3750.657715,561.622498 3766.035400,516.989929 
	C3775.146973,490.544342 3789.465576,467.226440 3807.870605,446.288300 
	C3831.261719,419.678253 3860.147949,400.370972 3890.904541,383.506256 
	C3935.508057,359.048828 3983.468262,345.436249 4033.776123,339.820618 
	C4053.213135,337.650970 4072.773438,336.369965 4092.312988,335.399963 
	C4110.905762,334.476959 4129.568359,333.695984 4148.159180,334.242096 
	C4196.070801,335.649384 4243.605957,340.298309 4289.316895,356.027740 
	C4339.827637,373.408752 4384.321777,400.567841 4420.633301,439.992950 
	C4443.905762,465.261292 4460.071289,494.970062 4470.256836,527.789185 
	C4476.348633,547.419006 4482.045898,567.216919 4482.288086,588.005493 
	C4482.501465,606.301880 4470.778320,618.045715 4452.658203,618.080811 
	C4427.325684,618.129883 4401.993652,618.114990 4376.661133,618.085083 
	C4361.690918,618.067383 4351.878418,610.591187 4347.603516,595.906250 
	C4344.264160,584.434509 4341.399414,572.812988 4337.714844,561.455688 
	C4330.750977,539.988403 4319.604980,520.760742 4304.061035,504.420746 
	C4290.387695,490.046844 4273.829102,479.599670 4255.489258,472.001068 
	C4227.869629,460.557892 4198.827637,455.456604 4169.243652,453.421356 
	C4149.691895,452.076263 4130.045898,451.186584 4110.459961,451.450439 
	C4071.231934,451.978821 4032.164062,454.885162 3994.305908,466.223175 
	C3969.559570,473.634369 3946.517822,484.387909 3927.966553,503.150574 
	C3907.628662,523.720276 3897.957275,548.889160 3895.699951,577.266113 
	C3894.517334,592.133118 3894.593262,606.958618 3898.249268,621.574585 
	C3905.093018,648.932007 3922.530029,667.424133 3947.070557,679.939941 
	C3972.125732,692.718079 3998.928467,700.276733 4026.205078,706.513672 
	C4089.982178,721.096741 4153.695312,735.959473 4217.487793,750.474548 
	C4241.760254,755.997314 4266.314453,760.317993 4290.500977,766.172241 
	C4336.145996,777.220215 4380.725098,791.304932 4421.901855,814.670776 
	C4470.653320,842.334900 4501.871094,883.407410 4512.984375,938.100708 
	C4523.904785,991.845093 4521.076172,1045.167969 4499.869141,1096.604980 
	C4481.669922,1140.745850 4451.181641,1174.680298 4412.350098,1201.593750 
	C4360.330566,1237.647461 4302.782715,1259.624023 4240.135254,1267.974243 
	C4219.121582,1270.775513 4197.947266,1272.901489 4176.779297,1273.890747 
	C4150.196777,1275.133057 4123.510742,1275.943481 4096.931152,1275.070679 
	C4039.733398,1273.192627 3983.062744,1266.714722 3928.238281,1249.209351 
	C3898.366455,1239.671387 3869.920410,1226.843994 3843.319824,1208.634766 
z"/>
<path fill="#FEFEFE" opacity="1.000000" stroke="none" 
	d="
M5558.961426,1273.570557 
	C5554.267090,1274.299927 5550.335938,1275.201172 5546.399902,1275.220459 
	C5520.407227,1275.348389 5494.411621,1275.151733 5468.419434,1275.340332 
	C5454.309570,1275.442749 5444.360840,1269.446411 5438.208496,1256.755249 
	C5409.500488,1197.532959 5380.745117,1138.333252 5351.971191,1079.142700 
	C5344.121582,1062.995850 5336.005371,1046.976685 5328.277832,1030.772095 
	C5322.165039,1017.952332 5312.220703,1012.041931 5298.106445,1012.049500 
	C5164.471680,1012.121460 5030.837402,1012.141602 4897.202637,1012.015747 
	C4883.961914,1012.003296 4874.162598,1017.138367 4867.559082,1028.520508 
	C4866.558105,1030.244507 4865.565918,1031.977417 4864.664551,1033.754395 
	C4840.461426,1081.498047 4816.316406,1129.271240 4792.060059,1176.988037 
	C4778.353516,1203.951416 4764.375488,1230.777100 4750.706543,1257.759277 
	C4744.650879,1269.712158 4735.153809,1275.361084 4721.863281,1275.314453 
	C4695.203125,1275.220825 4668.493652,1274.296509 4641.897949,1275.602905 
	C4620.989746,1276.629639 4600.967773,1254.848755 4613.510742,1229.877930 
	C4664.991699,1127.391846 4715.936035,1024.636108 4767.102051,921.991699 
	C4827.344238,801.140015 4887.633789,680.312073 4947.859863,559.452698 
	C4981.957520,491.027100 5016.085449,422.616302 5049.921875,354.061981 
	C5056.714355,340.300903 5066.629883,333.476105 5082.218262,333.958923 
	C5100.196777,334.515808 5118.206055,334.155060 5136.201172,334.067474 
	C5150.780273,333.996490 5160.249512,340.715637 5166.309570,354.078247 
	C5181.115234,386.723114 5196.605469,419.056763 5211.752441,451.547089 
	C5229.160156,488.886169 5246.470215,526.270630 5263.870605,563.613098 
	C5278.455078,594.913025 5293.138672,626.166992 5307.724609,657.466492 
	C5325.118652,694.792053 5342.432617,732.155029 5359.826172,769.481018 
	C5374.418457,800.796997 5389.101074,832.070801 5403.694824,863.385986 
	C5421.081543,900.694458 5438.395508,938.036621 5455.779785,975.346252 
	C5470.794922,1007.572388 5485.895508,1039.758911 5500.901855,1071.989380 
	C5518.136719,1109.005493 5535.304199,1146.053345 5552.512695,1183.081787 
	C5559.789551,1198.739258 5567.088867,1214.386841 5574.394531,1230.031128 
	C5583.064941,1248.598633 5578.090820,1263.298584 5558.961426,1273.570557 
M5192.592773,734.531189 
	C5176.802734,701.198303 5161.166504,667.791260 5145.104980,634.589783 
	C5141.519531,627.178650 5137.071289,619.985291 5131.928711,613.566589 
	C5119.885742,598.535583 5101.596680,596.697327 5087.304688,609.667053 
	C5080.825195,615.547546 5075.321777,623.185913 5071.333008,631.023193 
	C5037.995117,696.522705 5005.007324,762.201111 4972.144043,827.940613 
	C4957.860840,856.512756 4976.726562,887.796631 5008.669434,887.980591 
	C5072.663086,888.349182 5136.662598,888.366455 5200.655273,887.968994 
	C5231.203613,887.779297 5250.651855,857.143738 5237.711426,829.512146 
	C5234.187012,821.986511 5230.483887,814.544556 5226.925781,807.034485 
	C5215.688965,783.320923 5204.481934,759.593384 5192.592773,734.531189 
z"/>
<path fill="#FEFEFE" opacity="1.000000" stroke="none" 
	d="
M1217.016602,1211.148804 
	C1253.828125,1137.577148 1290.281250,1064.659302 1326.666138,991.707275 
	C1379.197021,886.382385 1431.669067,781.028259 1484.183105,675.694946 
	C1535.841309,572.078186 1587.519409,468.471375 1639.194336,364.862976 
	C1642.156372,358.924164 1644.786133,352.775635 1648.246094,347.139404 
	C1653.491211,338.595184 1661.667969,334.281281 1671.579834,334.163727 
	C1692.243286,333.918610 1712.917969,333.789032 1733.575806,334.210358 
	C1744.628052,334.435822 1753.374146,339.505615 1758.319458,349.908356 
	C1767.595703,369.421448 1776.913574,388.915375 1786.069946,408.484741 
	C1798.736084,435.555542 1811.241455,462.701477 1823.865601,489.791962 
	C1840.983276,526.525024 1858.168335,563.226562 1875.286621,599.959229 
	C1890.444702,632.485657 1905.551025,665.036255 1920.680176,697.576172 
	C1937.757080,734.305115 1954.802002,771.049011 1971.920166,807.758728 
	C1986.949219,839.988159 2002.105835,872.158142 2017.122925,904.393127 
	C2034.229248,941.112793 2051.203125,977.894165 2068.309814,1014.613586 
	C2083.182617,1046.538452 2098.172607,1078.408569 2113.089355,1110.313110 
	C2131.943115,1150.638550 2151.162842,1190.799072 2169.469238,1231.371704 
	C2180.306152,1255.389648 2163.222168,1276.080322 2140.751709,1275.454712 
	C2114.771973,1274.731445 2088.756348,1275.161011 2062.757568,1275.336426 
	C2048.614014,1275.431885 2038.812744,1269.371948 2032.598389,1256.609619 
	C2002.609619,1195.021973 1972.448242,1133.518311 1942.362793,1071.977783 
	C1935.501709,1057.943359 1928.667480,1043.895874 1921.877930,1029.826782 
	C1916.080200,1017.812866 1906.563354,1012.062195 1893.233154,1012.066406 
	C1759.234741,1012.108887 1625.236328,1012.136108 1491.237915,1012.029358 
	C1476.608887,1012.017700 1466.691772,1018.594421 1460.277588,1031.392578 
	C1454.469360,1042.981567 1448.405029,1054.441895 1442.541748,1066.003540 
	C1418.324341,1113.758423 1394.158569,1161.539429 1369.933594,1209.290527 
	C1362.113525,1224.705322 1353.987427,1239.967407 1346.338013,1255.465454 
	C1339.612183,1269.092285 1329.375122,1275.748291 1313.800415,1275.434570 
	C1287.144775,1274.897583 1260.467651,1275.535889 1233.805298,1275.209839 
	C1211.028931,1274.931274 1197.432983,1253.343140 1206.404175,1232.338013 
	C1207.186157,1230.506958 1208.225708,1228.787109 1209.112915,1226.999390 
	C1211.627075,1221.933228 1214.124146,1216.858643 1217.016602,1211.148804 
M1633.001099,888.090637 
	C1683.306396,888.090637 1733.611816,888.091492 1783.917114,888.089050 
	C1788.247803,888.088867 1792.595581,888.313232 1796.906494,888.015503 
	C1829.736694,885.747742 1843.458008,852.295166 1832.340942,830.637451 
	C1823.701172,813.806274 1816.132202,796.426147 1808.057983,779.303894 
	C1796.586792,754.977661 1785.162231,730.629028 1773.582397,706.354492 
	C1760.854248,679.672668 1748.256958,652.920837 1734.958740,626.523743 
	C1731.612549,619.881226 1726.583374,613.589783 1720.973877,608.685059 
	C1708.420166,597.708496 1693.379395,598.137451 1681.589233,609.898071 
	C1675.355103,616.116699 1669.822754,623.517700 1665.715454,631.303772 
	C1651.139038,658.936584 1637.300171,686.958679 1623.204468,714.844666 
	C1604.457642,751.932373 1586.046631,789.194153 1566.901123,826.074829 
	C1550.687988,857.306885 1574.187378,889.393066 1605.018677,888.144104 
	C1613.666382,887.793823 1622.340088,888.090637 1633.001099,888.090637 
z"/>
<path fill="#FFFFFF" opacity="1.000000" stroke="none" 
	d="
M2317.665283,835.999817 
	C2317.665283,680.389404 2317.665039,525.778992 2317.667236,371.168640 
	C2317.667236,368.169922 2317.502197,365.155579 2317.742676,362.175049 
	C2319.085693,345.522400 2331.322998,334.151093 2348.054688,334.109558 
	C2375.377930,334.041687 2402.706787,334.419739 2430.022949,333.977753 
	C2448.796387,333.674042 2460.622314,350.029724 2460.604004,364.774414 
	C2460.242920,658.000488 2460.340820,951.227173 2460.320557,1244.453735 
	C2460.319336,1263.081421 2448.398926,1275.169922 2429.849854,1275.251709 
	C2402.860352,1275.370728 2375.869385,1275.382935 2348.879883,1275.247192 
	C2330.543701,1275.155029 2318.333496,1263.112671 2317.681885,1244.850952 
	C2317.586914,1242.188721 2317.665283,1239.520020 2317.665283,1236.854370 
	C2317.665283,1103.569580 2317.665283,970.284729 2317.665283,835.999817 
z"/>
<path fill="#FEFEFE" opacity="1.000000" stroke="none" 
	d="
M87.999855,452.092957 
	C66.676064,452.092957 46.352127,452.133392 26.028440,452.078766 
	C12.397813,452.042145 8.340167,447.897034 8.337886,434.086761 
	C8.323852,349.126495 8.563495,264.165100 8.154302,179.206802 
	C8.061229,159.882751 23.238203,141.013031 43.864632,139.758850 
	C50.829784,139.335342 57.826092,139.333527 64.808784,139.307541 
	C81.134262,139.246780 97.460548,139.361801 113.785698,139.266647 
	C129.113220,139.177322 139.512512,130.159836 141.793869,114.999611 
	C142.285843,111.730309 142.301804,108.369514 142.308945,105.050369 
	C142.352707,84.726631 142.694000,64.394424 142.228104,44.081284 
	C141.767838,24.013371 161.778107,5.814427 180.378296,5.905373 
	C265.336548,6.320777 350.297974,6.078343 435.258240,6.097030 
	C449.509918,6.100164 453.656372,10.269396 453.663788,24.468811 
	C453.680817,57.120201 453.688110,89.771622 453.660065,122.422997 
	C453.648407,135.989944 449.501221,140.079666 435.675507,140.082840 
	C348.716156,140.102814 261.756622,140.017807 174.797928,140.254425 
	C168.704514,140.270996 162.044785,141.435349 156.652710,144.099014 
	C146.970901,148.881775 142.661453,157.896683 142.373138,168.633652 
	C142.194321,175.292419 142.339188,181.959869 142.339188,188.623428 
	C142.339127,269.252380 142.339157,349.881348 142.339142,430.510315 
	C142.339127,432.509369 142.380676,434.509460 142.331818,436.507324 
	C142.086594,446.534637 137.049820,451.856293 126.980492,452.036530 
	C114.323982,452.263062 101.660370,452.092285 87.999855,452.092957 
z"/>
<path fill="#010101" opacity="1.000000" stroke="none" 
	d="
M830.695679,1150.299438 
	C824.177368,1151.008911 818.580383,1151.795898 812.960815,1152.021606 
	C799.020142,1152.581787 785.069519,1153.222046 771.122253,1153.238281 
	C679.845398,1153.344116 588.568359,1153.292847 497.291412,1153.292725 
	C494.959534,1153.292725 492.621429,1153.402222 490.296814,1153.271729 
	C479.831268,1152.684692 473.843414,1147.676514 471.673431,1137.435059 
	C470.924255,1133.899170 470.393707,1130.239014 470.390289,1126.635010 
	C470.318054,1050.681885 470.291290,974.728760 470.378540,898.775757 
	C470.393372,885.884705 472.973724,873.782349 482.821381,864.269470 
	C491.091949,856.279907 500.751251,852.072937 512.300232,852.075806 
	C611.905396,852.100769 711.515015,851.548767 811.113342,852.374084 
	C847.604187,852.676453 883.919983,857.065918 918.646729,869.806458 
	C948.105469,880.614258 973.155579,897.119385 989.545532,924.711243 
	C1000.382690,942.955322 1006.133362,962.864441 1008.360291,983.906006 
	C1010.641418,1005.459045 1010.782043,1026.931519 1006.125671,1048.201538 
	C999.455994,1078.668335 982.996277,1102.162964 955.820801,1117.886230 
	C929.235962,1133.267700 900.112671,1141.013184 870.139648,1145.874268 
	C857.400879,1147.940552 844.457214,1148.744141 830.695679,1150.299438 
z"/>
<path fill="#010000" opacity="1.000000" stroke="none" 
	d="
M976.078369,631.806641 
	C972.287415,646.542542 966.647705,659.461243 958.078674,671.157776 
	C943.938904,690.458130 924.441223,701.905762 902.456238,709.674927 
	C880.422424,717.461426 857.527710,721.522095 834.373962,724.033569 
	C800.963806,727.657593 767.411987,728.142944 733.838806,728.109863 
	C661.873596,728.038940 589.907837,728.199951 517.943665,727.920776 
	C510.477051,727.891785 502.460449,726.863403 495.671143,723.996521 
	C480.333862,717.520203 471.716675,705.427246 471.699280,688.297668 
	C471.626556,616.665710 471.652557,545.033508 471.683990,473.401428 
	C471.689423,460.964447 478.069489,454.556305 490.634125,454.101288 
	C492.297821,454.041016 493.965546,454.092499 495.631409,454.092499 
	C597.249084,454.092468 698.868469,453.759766 800.483337,454.295197 
	C830.995789,454.455963 861.601135,456.864441 890.938660,466.257050 
	C903.807983,470.377289 916.589417,475.617310 928.324036,482.266663 
	C955.718445,497.789429 971.117126,522.520508 977.133789,552.900940 
	C982.276550,578.868347 982.169128,605.031433 976.078369,631.806641 
z"/>
<path fill="#010101" opacity="1.000000" stroke="none" 
	d="
M5192.928223,735.201233 
	C5204.481934,759.593384 5215.688965,783.320923 5226.925781,807.034485 
	C5230.483887,814.544556 5234.187012,821.986511 5237.711426,829.512146 
	C5250.651855,857.143738 5231.203613,887.779297 5200.655273,887.968994 
	C5136.662598,888.366455 5072.663086,888.349182 5008.669434,887.980591 
	C4976.726562,887.796631 4957.860840,856.512756 4972.144043,827.940613 
	C5005.007324,762.201111 5037.995117,696.522705 5071.333008,631.023193 
	C5075.321777,623.185913 5080.825195,615.547546 5087.304688,609.667053 
	C5101.596680,596.697327 5119.885742,598.535583 5131.928711,613.566589 
	C5137.071289,619.985291 5141.519531,627.178650 5145.104980,634.589783 
	C5161.166504,667.791260 5176.802734,701.198303 5192.928223,735.201233 
z"/>
<path fill="#010101" opacity="1.000000" stroke="none" 
	d="
M1632.001465,888.090637 
	C1622.340088,888.090637 1613.666382,887.793823 1605.018677,888.144104 
	C1574.187378,889.393066 1550.687988,857.306885 1566.901123,826.074829 
	C1586.046631,789.194153 1604.457642,751.932373 1623.204468,714.844666 
	C1637.300171,686.958679 1651.139038,658.936584 1665.715454,631.303772 
	C1669.822754,623.517700 1675.355103,616.116699 1681.589233,609.898071 
	C1693.379395,598.137451 1708.420166,597.708496 1720.973877,608.685059 
	C1726.583374,613.589783 1731.612549,619.881226 1734.958740,626.523743 
	C1748.256958,652.920837 1760.854248,679.672668 1773.582397,706.354492 
	C1785.162231,730.629028 1796.586792,754.977661 1808.057983,779.303894 
	C1816.132202,796.426147 1823.701172,813.806274 1832.340942,830.637451 
	C1843.458008,852.295166 1829.736694,885.747742 1796.906494,888.015503 
	C1792.595581,888.313232 1788.247803,888.088867 1783.917114,888.089050 
	C1733.611816,888.091492 1683.306396,888.090637 1632.001465,888.090637 
z"/>
</svg>